<svg xmlns="http://www.w3.org/2000/svg" viewBox="0 0 1992.14 86.75">
  <g id="Calque_2" data-name="Calque 2">
    <g id="Design">
      <g>
        <g>
          <rect y="0.07" width="86.61" height="86.65" fill="#6882c7"/>
          <path d="M60,19.18h0A16.4,16.4,0,0,0,43.6,2.78h-.55a16.4,16.4,0,0,0-16.41,16.4h0C27,3.17,13.7-.6,0,.07V65.5C0,77.16,10.57,86.75,23.45,86.75h0a24.09,24.09,0,0,0,19.85-10l0-.09,0,.09a24.08,24.08,0,0,0,19.85,10h0c12.87,0,23.41-9.59,23.41-21.25V.07C73-.6,59.69,3.17,60,19.18Z" fill="#1f085e"/>
          <rect x="173.22" y="0.07" width="86.61" height="86.65" fill="#1f085e"/>
          <rect x="86.61" y="0.07" width="86.61" height="86.65" fill="#6e1751"/>
          <path d="M233.22,19.18h0a16.4,16.4,0,0,0-16.4-16.4h-.55a16.4,16.4,0,0,0-16.41,16.4h0c.31-16-12.94-19.78-26.61-19.11V65.5c0,11.66,10.54,21.25,23.42,21.25h0a24.09,24.09,0,0,0,19.85-10l0-.09,0,.09a24.07,24.07,0,0,0,19.84,10h0c12.88,0,23.42-9.59,23.42-21.25V.07C246.17-.6,232.91,3.17,233.22,19.18Z" fill="#4339b4"/>
          <circle cx="129.93" cy="43.4" r="43.32" fill="#ab61f0"/>
          <rect x="346.47" y="0.07" width="86.61" height="86.65" fill="#4339b4"/>
          <rect x="259.86" y="0.07" width="86.61" height="86.65" fill="#ab61f0"/>
          <path d="M406.48,19.18h0a16.41,16.41,0,0,0-16.41-16.4h-.55a16.41,16.41,0,0,0-16.41,16.4h0C373.42,3.17,360.17-.6,346.5.07V65.5c0,11.66,10.54,21.25,23.42,21.25h0a24.09,24.09,0,0,0,19.85-10l0-.09,0,.09a24.08,24.08,0,0,0,19.85,10h0c12.87,0,23.41-9.59,23.41-21.25V.07C419.42-.6,406.17,3.17,406.48,19.18Z" fill="#6882c7"/>
          <circle cx="303.18" cy="43.4" r="43.32" fill="#6e1751"/>
          <rect x="519.69" y="0.07" width="86.61" height="86.65" fill="#ab61f0"/>
          <rect x="433.08" y="0.07" width="86.61" height="86.65" fill="#1f085e"/>
          <path d="M579.7,19.18h0a16.41,16.41,0,0,0-16.41-16.4h-.55a16.41,16.41,0,0,0-16.41,16.4h0c.31-16-12.94-19.78-26.61-19.11V65.5c0,11.66,10.54,21.25,23.42,21.25h0a24.09,24.09,0,0,0,19.85-10l0-.09,0,.09a24.08,24.08,0,0,0,19.85,10h0c12.87,0,23.41-9.59,23.41-21.25V.07C592.64-.6,579.39,3.17,579.7,19.18Z" fill="#6e1751"/>
          <circle cx="476.4" cy="43.4" r="43.32" fill="#4339b4"/>
          <rect x="692.91" y="0.07" width="86.61" height="86.65" fill="#6882c7"/>
          <rect x="606.3" y="0.07" width="86.61" height="86.65" fill="#4339b4"/>
          <path d="M752.92,19.18h0a16.41,16.41,0,0,0-16.41-16.4H736a16.41,16.41,0,0,0-16.41,16.4h0c.31-16-12.94-19.78-26.61-19.11V65.5c0,11.66,10.54,21.25,23.42,21.25h0a24.09,24.09,0,0,0,19.85-10l0-.09,0,.09a24.08,24.08,0,0,0,19.85,10h0c12.87,0,23.41-9.59,23.41-21.25V.07C765.86-.6,752.61,3.17,752.92,19.18Z" fill="#1f085e"/>
          <circle cx="649.62" cy="43.4" r="43.32" fill="#6882c7"/>
          <rect x="866.13" y="0.07" width="86.61" height="86.65" fill="#1f085e"/>
          <rect x="779.52" y="0.07" width="86.61" height="86.65" fill="#6e1751"/>
          <path d="M926.13,19.18h0a16.4,16.4,0,0,0-16.4-16.4h-.55a16.41,16.41,0,0,0-16.41,16.4h0c.31-16-12.94-19.78-26.61-19.11V65.5c0,11.66,10.54,21.25,23.42,21.25h0a24.09,24.09,0,0,0,19.85-10l0-.09,0,.09a24.08,24.08,0,0,0,19.85,10h0c12.87,0,23.41-9.59,23.41-21.25V.07C939.08-.6,925.83,3.17,926.13,19.18Z" fill="#4339b4"/>
          <circle cx="822.84" cy="43.4" r="43.32" fill="#ab61f0"/>
        </g>
        <g>
          <rect x="1039.38" y="0.07" width="86.61" height="86.65" fill="#4339b4"/>
          <rect x="952.77" y="0.07" width="86.61" height="86.65" fill="#ab61f0"/>
          <path d="M1099.39,19.18h0A16.41,16.41,0,0,0,1083,2.78h-.55A16.41,16.41,0,0,0,1066,19.18h0c.31-16-12.94-19.78-26.6-19.11V65.5c0,11.66,10.53,21.25,23.41,21.25h0a24.09,24.09,0,0,0,19.85-10l0-.09,0,.09a24.08,24.08,0,0,0,19.85,10h0c12.88,0,23.41-9.59,23.41-21.25V.07C1112.33-.6,1099.08,3.17,1099.39,19.18Z" fill="#6882c7"/>
          <circle cx="996.09" cy="43.4" r="43.32" fill="#6e1751"/>
          <rect x="1212.6" y="0.07" width="86.61" height="86.65" fill="#ab61f0"/>
          <rect x="1125.99" y="0.07" width="86.61" height="86.65" fill="#1f085e"/>
          <path d="M1272.61,19.18h0a16.41,16.41,0,0,0-16.41-16.4h-.55a16.41,16.41,0,0,0-16.41,16.4h0c.31-16-12.94-19.78-26.61-19.11V65.5c0,11.66,10.54,21.25,23.42,21.25h0a24.09,24.09,0,0,0,19.85-10l0-.09,0,.09a24.08,24.08,0,0,0,19.85,10h0c12.88,0,23.41-9.59,23.41-21.25V.07C1285.55-.6,1272.3,3.17,1272.61,19.18Z" fill="#6e1751"/>
          <circle cx="1169.31" cy="43.4" r="43.32" fill="#4339b4"/>
          <rect x="1385.82" y="0.07" width="86.61" height="86.65" fill="#6882c7"/>
          <rect x="1299.21" y="0.07" width="86.61" height="86.65" fill="#4339b4"/>
          <path d="M1445.83,19.18h0a16.41,16.41,0,0,0-16.41-16.4h-.55a16.41,16.41,0,0,0-16.41,16.4h0c.31-16-12.94-19.78-26.61-19.11V65.5c0,11.66,10.54,21.25,23.42,21.25h0a24.09,24.09,0,0,0,19.85-10l0-.09,0,.09a24.08,24.08,0,0,0,19.85,10h0c12.87,0,23.41-9.59,23.41-21.25V.07C1458.77-.6,1445.52,3.17,1445.83,19.18Z" fill="#1f085e"/>
          <circle cx="1342.53" cy="43.4" r="43.32" fill="#6882c7"/>
          <rect x="1559.04" y="0.07" width="86.61" height="86.65" fill="#1f085e"/>
          <rect x="1472.43" y="0.07" width="86.61" height="86.65" fill="#6e1751"/>
          <path d="M1619.05,19.18h0a16.41,16.41,0,0,0-16.41-16.4h-.55a16.41,16.41,0,0,0-16.41,16.4h0c.31-16-12.94-19.78-26.61-19.11V65.5c0,11.66,10.54,21.25,23.42,21.25h0a24.09,24.09,0,0,0,19.85-10l0-.09,0,.09a24.08,24.08,0,0,0,19.85,10h0c12.87,0,23.41-9.59,23.41-21.25V.07C1632-.6,1618.74,3.17,1619.05,19.18Z" fill="#4339b4"/>
          <circle cx="1515.75" cy="43.4" r="43.32" fill="#ab61f0"/>
        </g>
        <g>
          <rect x="1732.31" y="0.07" width="86.61" height="86.65" fill="#4339b4"/>
          <rect x="1645.7" y="0.07" width="86.61" height="86.65" fill="#ab61f0"/>
          <path d="M1792.31,19.18h0a16.4,16.4,0,0,0-16.4-16.4h-.55A16.41,16.41,0,0,0,1759,19.18h0c.31-16-12.94-19.78-26.61-19.11V65.5c0,11.66,10.54,21.25,23.42,21.25h0a24.09,24.09,0,0,0,19.85-10l0-.09,0,.09a24.08,24.08,0,0,0,19.85,10h0c12.87,0,23.41-9.59,23.41-21.25V.07C1805.26-.6,1792,3.17,1792.31,19.18Z" fill="#6882c7"/>
          <circle cx="1689.02" cy="43.4" r="43.32" fill="#6e1751"/>
          <rect x="1905.53" y="0.07" width="86.61" height="86.65" fill="#ab61f0"/>
          <rect x="1818.92" y="0.07" width="86.61" height="86.65" fill="#1f085e"/>
          <path d="M1965.53,19.18h0a16.4,16.4,0,0,0-16.4-16.4h-.55a16.4,16.4,0,0,0-16.41,16.4h0c.31-16-12.94-19.78-26.61-19.11V65.5c0,11.66,10.54,21.25,23.42,21.25h0a24.09,24.09,0,0,0,19.85-10l0-.09,0,.09a24.08,24.08,0,0,0,19.85,10h0c12.87,0,23.41-9.59,23.41-21.25V.07C1978.48-.6,1965.23,3.17,1965.53,19.18Z" fill="#6e1751"/>
          <circle cx="1862.24" cy="43.4" r="43.32" fill="#4339b4"/>
        </g>
      </g>
    </g>
  </g>
</svg>
