<svg xmlns="http://www.w3.org/2000/svg" viewBox="0 0 1992.14 86.75">
  <g id="Calque_2" data-name="Calque 2">
    <g id="Design">
      <g>
        <g>
          <rect y="0.07" width="86.61" height="86.65" fill="#ab61f0"/>
          <rect x="173.22" y="0.07" width="86.61" height="86.65" fill="#6882c7"/>
          <rect x="86.61" y="0.07" width="86.61" height="86.65" fill="#4339b4"/>
          <path d="M60,19.18h0A16.4,16.4,0,0,0,43.59,2.78H43a16.4,16.4,0,0,0-16.4,16.4h0C27,3.17,13.69-.6,0,.07V65.5C0,77.16,10.57,86.75,23.45,86.75h0a24.07,24.07,0,0,0,19.84-10l0-.09,0,.09a24.09,24.09,0,0,0,19.85,10h0c12.88,0,23.42-9.59,23.42-21.25V.07C72.94-.6,59.69,3.17,60,19.18Z" fill="#6e1751"/>
          <path d="M233.22,19.18h0a16.41,16.41,0,0,0-16.41-16.4h-.55a16.41,16.41,0,0,0-16.41,16.4h0c.31-16-12.94-19.78-26.6-19.11V65.5c0,11.66,10.54,21.25,23.41,21.25h0a24.08,24.08,0,0,0,19.85-10l0-.09,0,.09a24.09,24.09,0,0,0,19.85,10h0c12.88,0,23.42-9.59,23.42-21.25V.07C246.16-.6,232.91,3.17,233.22,19.18Z" fill="#1f085e"/>
          <circle cx="129.93" cy="43.4" r="43.32" fill="#6882c7"/>
          <rect x="346.44" y="0.07" width="86.61" height="86.65" fill="#1f085e"/>
          <rect x="259.83" y="0.07" width="86.61" height="86.65" fill="#6e1751"/>
          <path d="M406.44,19.18h0A16.41,16.41,0,0,0,390,2.78h-.55a16.41,16.41,0,0,0-16.41,16.4h0c.31-16-12.94-19.78-26.6-19.11V65.5c0,11.66,10.54,21.25,23.41,21.25h0a24.08,24.08,0,0,0,19.85-10l0-.09,0,.09a24.09,24.09,0,0,0,19.85,10h0c12.88,0,23.42-9.59,23.42-21.25V.07C419.38-.6,406.13,3.17,406.44,19.18Z" fill="#4339b4"/>
          <circle cx="303.15" cy="43.4" r="43.32" fill="#ab61f0"/>
          <rect x="519.69" y="0.07" width="86.61" height="86.65" fill="#4339b4"/>
          <rect x="433.08" y="0.07" width="86.61" height="86.65" fill="#ab61f0"/>
          <path d="M579.69,19.18h0a16.4,16.4,0,0,0-16.41-16.4h-.55a16.4,16.4,0,0,0-16.4,16.4h0c.31-16-13-19.78-26.61-19.11V65.5c0,11.66,10.54,21.25,23.42,21.25h0a24.07,24.07,0,0,0,19.84-10l0-.09,0,.09a24.09,24.09,0,0,0,19.85,10h0c12.88,0,23.42-9.59,23.42-21.25V.07C592.63-.6,579.38,3.17,579.69,19.18Z" fill="#6882c7"/>
          <circle cx="476.4" cy="43.4" r="43.32" fill="#6e1751"/>
          <rect x="692.91" y="0.07" width="86.61" height="86.65" fill="#ab61f0"/>
          <rect x="606.3" y="0.07" width="86.61" height="86.65" fill="#1f085e"/>
          <path d="M752.91,19.18h0A16.4,16.4,0,0,0,736.5,2.78H736a16.4,16.4,0,0,0-16.4,16.4h0C719.86,3.17,706.6-.6,692.94.07V65.5c0,11.66,10.54,21.25,23.42,21.25h0a24.07,24.07,0,0,0,19.84-10l0-.09,0,.09a24.09,24.09,0,0,0,19.85,10h0c12.88,0,23.42-9.59,23.42-21.25V.07C765.85-.6,752.6,3.17,752.91,19.18Z" fill="#6e1751"/>
          <circle cx="649.62" cy="43.4" r="43.32" fill="#4339b4"/>
          <rect x="866.13" y="0.07" width="86.61" height="86.65" fill="#6882c7"/>
          <rect x="779.52" y="0.07" width="86.61" height="86.65" fill="#4339b4"/>
          <path d="M926.13,19.18h0a16.4,16.4,0,0,0-16.41-16.4h-.55a16.4,16.4,0,0,0-16.4,16.4h0c.31-16-12.95-19.78-26.61-19.11V65.5c0,11.66,10.54,21.25,23.41,21.25h0a24.08,24.08,0,0,0,19.85-10l0-.09,0,.09a24.09,24.09,0,0,0,19.85,10h0c12.88,0,23.42-9.59,23.42-21.25V.07C939.07-.6,925.82,3.17,926.13,19.18Z" fill="#1f085e"/>
          <circle cx="822.84" cy="43.4" r="43.32" fill="#6882c7"/>
          <rect x="1039.35" y="0.07" width="86.61" height="86.65" fill="#1f085e"/>
          <rect x="952.74" y="0.07" width="86.61" height="86.65" fill="#6e1751"/>
          <path d="M1099.35,19.18h0a16.4,16.4,0,0,0-16.41-16.4h-.55a16.4,16.4,0,0,0-16.4,16.4h0c.3-16-13-19.78-26.61-19.11V65.5c0,11.66,10.54,21.25,23.41,21.25h0a24.08,24.08,0,0,0,19.85-10l0-.09,0,.09a24.09,24.09,0,0,0,19.85,10h0c12.88,0,23.42-9.59,23.42-21.25V.07C1112.29-.6,1099,3.17,1099.35,19.18Z" fill="#4339b4"/>
          <circle cx="996.06" cy="43.4" r="43.32" fill="#ab61f0"/>
        </g>
        <g>
          <rect x="1212.58" y="0.07" width="86.61" height="86.65" fill="#6882c7"/>
          <rect x="1125.97" y="0.07" width="86.61" height="86.65" fill="#6e1751"/>
          <path d="M1272.58,19.18h0a16.4,16.4,0,0,0-16.41-16.4h-.55a16.4,16.4,0,0,0-16.4,16.4h0c.31-16-13-19.78-26.61-19.11V65.5c0,11.66,10.54,21.25,23.42,21.25h0a24.07,24.07,0,0,0,19.84-10l0-.09,0,.09a24.09,24.09,0,0,0,19.85,10h0c12.88,0,23.42-9.59,23.42-21.25V.07C1285.52-.6,1272.27,3.17,1272.58,19.18Z" fill="#1f085e"/>
          <circle cx="1169.29" cy="43.4" r="43.32" fill="#6882c7"/>
          <rect x="1385.8" y="0.07" width="86.61" height="86.65" fill="#1f085e"/>
          <rect x="1299.19" y="0.07" width="86.61" height="86.65" fill="#6882c7"/>
          <path d="M1445.8,19.18h0a16.4,16.4,0,0,0-16.41-16.4h-.55a16.4,16.4,0,0,0-16.4,16.4h0c.31-16-13-19.78-26.61-19.11V65.5c0,11.66,10.54,21.25,23.41,21.25h0a24.08,24.08,0,0,0,19.85-10l0-.09,0,.09a24.09,24.09,0,0,0,19.85,10h0c12.88,0,23.42-9.59,23.42-21.25V.07C1458.74-.6,1445.49,3.17,1445.8,19.18Z" fill="#ab61f0"/>
          <circle cx="1342.51" cy="43.4" r="43.32" fill="#4339b4"/>
          <rect x="1559.05" y="0.07" width="86.61" height="86.65" fill="#4339b4"/>
          <rect x="1472.44" y="0.07" width="86.61" height="86.65" fill="#4339b4"/>
          <path d="M1619.05,19.18h0a16.4,16.4,0,0,0-16.4-16.4h-.55a16.4,16.4,0,0,0-16.41,16.4h0c.31-16-13-19.78-26.61-19.11V65.5c0,11.66,10.54,21.25,23.42,21.25h0a24.09,24.09,0,0,0,19.85-10l0-.09,0,.09a24.06,24.06,0,0,0,19.84,10h0c12.88,0,23.42-9.59,23.42-21.25V.07C1632-.6,1618.74,3.17,1619.05,19.18Z" fill="#6882c7"/>
          <circle cx="1515.76" cy="43.4" r="43.32" fill="#6e1751"/>
        </g>
        <g>
          <rect x="1732.28" y="0.07" width="86.61" height="86.65" fill="#1f085e"/>
          <rect x="1645.67" y="0.07" width="86.61" height="86.65" fill="#6e1751"/>
          <path d="M1792.28,19.18h0a16.41,16.41,0,0,0-16.41-16.4h-.55a16.41,16.41,0,0,0-16.41,16.4h0c.31-16-12.94-19.78-26.6-19.11V65.5c0,11.66,10.53,21.25,23.41,21.25h0a24.08,24.08,0,0,0,19.85-10l0-.09,0,.09a24.09,24.09,0,0,0,19.85,10h0c12.88,0,23.42-9.59,23.42-21.25V.07C1805.22-.6,1792,3.17,1792.28,19.18Z" fill="#4339b4"/>
          <circle cx="1688.99" cy="43.4" r="43.32" fill="#ab61f0"/>
          <rect x="1905.53" y="0.07" width="86.61" height="86.65" fill="#4339b4"/>
          <rect x="1818.92" y="0.07" width="86.61" height="86.65" fill="#ab61f0"/>
          <path d="M1965.53,19.18h0a16.4,16.4,0,0,0-16.41-16.4h-.55a16.4,16.4,0,0,0-16.4,16.4h0c.3-16-13-19.78-26.61-19.11V65.5c0,11.66,10.54,21.25,23.41,21.25h0a24.08,24.08,0,0,0,19.85-10l0-.09,0,.09a24.09,24.09,0,0,0,19.85,10h0c12.88,0,23.42-9.59,23.42-21.25V.07C1978.47-.6,1965.22,3.17,1965.53,19.18Z" fill="#6882c7"/>
          <circle cx="1862.24" cy="43.4" r="43.32" fill="#6e1751"/>
        </g>
      </g>
    </g>
  </g>
</svg>
